<mxfile host="Electron" agent="Mozilla/5.0 (X11; Linux x86_64) AppleWebKit/537.36 (KHTML, like Gecko) draw.io/26.0.9 Chrome/128.0.6613.186 Electron/32.3.0 Safari/537.36" version="26.0.9" pages="5">
  <diagram name="1_1" id="VdWact95R3ZrHPUHWGP3">
    <mxGraphModel dx="691" dy="410" grid="1" gridSize="10" guides="1" tooltips="1" connect="1" arrows="1" fold="1" page="1" pageScale="1" pageWidth="280" pageHeight="240" math="0" shadow="0">
      <root>
        <mxCell id="0" />
        <mxCell id="1" parent="0" />
        <mxCell id="u6eK8MBNWqOHnzkenwlq-3" value="3 + 4" style="edgeStyle=orthogonalEdgeStyle;rounded=0;orthogonalLoop=1;jettySize=auto;html=1;exitX=0.25;exitY=0;exitDx=0;exitDy=0;entryX=0.5;entryY=0;entryDx=0;entryDy=0;fillColor=#f5f5f5;strokeColor=#666666;" parent="1" source="nv63Od1LlB7BwaC0whO8-1" target="nv63Od1LlB7BwaC0whO8-3" edge="1">
          <mxGeometry relative="1" as="geometry">
            <Array as="points">
              <mxPoint x="50" y="40" />
              <mxPoint x="140" y="40" />
            </Array>
          </mxGeometry>
        </mxCell>
        <mxCell id="u6eK8MBNWqOHnzkenwlq-4" value="3 + 2" style="edgeStyle=orthogonalEdgeStyle;rounded=0;orthogonalLoop=1;jettySize=auto;html=1;exitX=0.75;exitY=0;exitDx=0;exitDy=0;entryX=0.5;entryY=0;entryDx=0;entryDy=0;fillColor=#f5f5f5;strokeColor=#666666;" parent="1" source="nv63Od1LlB7BwaC0whO8-1" target="nv63Od1LlB7BwaC0whO8-2" edge="1">
          <mxGeometry relative="1" as="geometry">
            <Array as="points">
              <mxPoint x="70" y="60" />
              <mxPoint x="100" y="60" />
            </Array>
          </mxGeometry>
        </mxCell>
        <mxCell id="nv63Od1LlB7BwaC0whO8-1" value="3" style="rounded=0;whiteSpace=wrap;html=1;fontSize=14;fillColor=#f5f5f5;strokeColor=#666666;fontColor=#333333;" parent="1" vertex="1">
          <mxGeometry x="40" y="80" width="40" height="40" as="geometry" />
        </mxCell>
        <mxCell id="LfSjy80fzOs8UYgtlhPb-1" style="edgeStyle=orthogonalEdgeStyle;rounded=0;orthogonalLoop=1;jettySize=auto;html=1;exitX=0.5;exitY=1;exitDx=0;exitDy=0;entryX=0.5;entryY=0;entryDx=0;entryDy=0;fillColor=#f5f5f5;strokeColor=#666666;" parent="1" source="nv63Od1LlB7BwaC0whO8-2" target="nv63Od1LlB7BwaC0whO8-12" edge="1">
          <mxGeometry relative="1" as="geometry" />
        </mxCell>
        <mxCell id="nv63Od1LlB7BwaC0whO8-2" value="2" style="rounded=0;whiteSpace=wrap;html=1;fontSize=14;fillColor=#f5f5f5;strokeColor=#666666;fontColor=#333333;" parent="1" vertex="1">
          <mxGeometry x="80" y="80" width="40" height="40" as="geometry" />
        </mxCell>
        <mxCell id="OTF3Yyp0MwZzzAG4lx8N-1" style="edgeStyle=orthogonalEdgeStyle;rounded=0;orthogonalLoop=1;jettySize=auto;html=1;exitX=0.5;exitY=1;exitDx=0;exitDy=0;entryX=0.5;entryY=0;entryDx=0;entryDy=0;fillColor=#f5f5f5;strokeColor=#666666;" parent="1" source="nv63Od1LlB7BwaC0whO8-3" target="nv63Od1LlB7BwaC0whO8-14" edge="1">
          <mxGeometry relative="1" as="geometry" />
        </mxCell>
        <mxCell id="nv63Od1LlB7BwaC0whO8-3" value="4" style="rounded=0;whiteSpace=wrap;html=1;fontSize=14;fillColor=#f5f5f5;strokeColor=#666666;fontColor=#333333;" parent="1" vertex="1">
          <mxGeometry x="120" y="80" width="40" height="40" as="geometry" />
        </mxCell>
        <mxCell id="nv63Od1LlB7BwaC0whO8-12" value="5" style="rounded=0;whiteSpace=wrap;html=1;fontSize=14;fillColor=#f5f5f5;strokeColor=#666666;fontStyle=0;fontColor=#333333;" parent="1" vertex="1">
          <mxGeometry x="80" y="160" width="40" height="40" as="geometry" />
        </mxCell>
        <mxCell id="nv63Od1LlB7BwaC0whO8-14" value="7" style="rounded=0;whiteSpace=wrap;html=1;fontSize=14;fillColor=#f5f5f5;strokeColor=#666666;fontColor=#333333;" parent="1" vertex="1">
          <mxGeometry x="120" y="160" width="40" height="40" as="geometry" />
        </mxCell>
        <mxCell id="46o2pT9ANN71txM1nCcm-1" value="nums" style="text;html=1;align=center;verticalAlign=middle;whiteSpace=wrap;rounded=0;fontSize=10;" parent="1" vertex="1">
          <mxGeometry x="40" y="120" width="120" height="20" as="geometry" />
        </mxCell>
        <mxCell id="y743vjSonsJhA4KVwRWZ-1" value="6" style="rounded=0;whiteSpace=wrap;html=1;fontSize=14;fillColor=#f5f5f5;strokeColor=#666666;fontColor=#333333;" parent="1" vertex="1">
          <mxGeometry x="200" y="80" width="40" height="40" as="geometry" />
        </mxCell>
        <mxCell id="y743vjSonsJhA4KVwRWZ-2" value="target" style="text;html=1;align=center;verticalAlign=middle;whiteSpace=wrap;rounded=0;fontSize=10;" parent="1" vertex="1">
          <mxGeometry x="200" y="120" width="40" height="20" as="geometry" />
        </mxCell>
      </root>
    </mxGraphModel>
  </diagram>
  <diagram name="1_2" id="6NTdhhrDKo1hCrSes3XH">
    <mxGraphModel dx="2074" dy="1231" grid="1" gridSize="10" guides="1" tooltips="1" connect="1" arrows="1" fold="1" page="1" pageScale="1" pageWidth="280" pageHeight="340" math="0" shadow="0">
      <root>
        <mxCell id="Env5wDa3-ul8XCWj3TZE-0" />
        <mxCell id="Env5wDa3-ul8XCWj3TZE-1" parent="Env5wDa3-ul8XCWj3TZE-0" />
        <mxCell id="Env5wDa3-ul8XCWj3TZE-4" value="3" style="rounded=0;whiteSpace=wrap;html=1;fontSize=14;fillColor=#f5f5f5;strokeColor=#666666;fontColor=#333333;" parent="Env5wDa3-ul8XCWj3TZE-1" vertex="1">
          <mxGeometry x="40" y="60" width="40" height="40" as="geometry" />
        </mxCell>
        <mxCell id="NUzDEfB6KZePFDAaPvhe-0" value="2 + 4" style="edgeStyle=orthogonalEdgeStyle;rounded=0;orthogonalLoop=1;jettySize=auto;html=1;exitX=0.5;exitY=0;exitDx=0;exitDy=0;entryX=0.5;entryY=0;entryDx=0;entryDy=0;fillColor=#f5f5f5;strokeColor=#666666;" parent="Env5wDa3-ul8XCWj3TZE-1" source="Env5wDa3-ul8XCWj3TZE-6" target="Env5wDa3-ul8XCWj3TZE-8" edge="1">
          <mxGeometry relative="1" as="geometry" />
        </mxCell>
        <mxCell id="Env5wDa3-ul8XCWj3TZE-6" value="2" style="rounded=0;whiteSpace=wrap;html=1;fontSize=14;fillColor=#f5f5f5;strokeColor=#666666;fontColor=#333333;" parent="Env5wDa3-ul8XCWj3TZE-1" vertex="1">
          <mxGeometry x="80" y="59.97" width="40" height="40" as="geometry" />
        </mxCell>
        <mxCell id="Env5wDa3-ul8XCWj3TZE-8" value="4" style="rounded=0;whiteSpace=wrap;html=1;fontSize=14;fillColor=#f5f5f5;strokeColor=#666666;fontColor=#333333;" parent="Env5wDa3-ul8XCWj3TZE-1" vertex="1">
          <mxGeometry x="120" y="59.97" width="40" height="40" as="geometry" />
        </mxCell>
        <mxCell id="CubrjU6dIXOkjV_wu-Gp-2" style="edgeStyle=orthogonalEdgeStyle;rounded=0;orthogonalLoop=1;jettySize=auto;html=1;exitX=0.5;exitY=1;exitDx=0;exitDy=0;entryX=0.5;entryY=0;entryDx=0;entryDy=0;fillColor=#ffe6cc;strokeColor=#d79b00;" parent="Env5wDa3-ul8XCWj3TZE-1" source="Env5wDa3-ul8XCWj3TZE-10" target="lBT97u84JXYTIlj_wOzR-1" edge="1">
          <mxGeometry relative="1" as="geometry" />
        </mxCell>
        <mxCell id="Env5wDa3-ul8XCWj3TZE-10" value="6" style="rounded=0;whiteSpace=wrap;html=1;fontSize=14;fillColor=#ffe6cc;strokeColor=#d79b00;fontStyle=0;fontColor=#333333;" parent="Env5wDa3-ul8XCWj3TZE-1" vertex="1">
          <mxGeometry x="120" y="160" width="40" height="40" as="geometry" />
        </mxCell>
        <mxCell id="msk4PVzX3fZnZM4PvKd4-0" value="1" style="text;html=1;align=center;verticalAlign=middle;whiteSpace=wrap;rounded=0;fillColor=#dae8fc;strokeColor=#6c8ebf;fontSize=12;fontColor=#333333;" parent="Env5wDa3-ul8XCWj3TZE-1" vertex="1">
          <mxGeometry x="80" y="99.97" width="40" height="20" as="geometry" />
        </mxCell>
        <mxCell id="msk4PVzX3fZnZM4PvKd4-2" value="" style="edgeStyle=orthogonalEdgeStyle;rounded=0;orthogonalLoop=1;jettySize=auto;html=1;exitX=0.5;exitY=1;exitDx=0;exitDy=0;entryX=0.5;entryY=0;entryDx=0;entryDy=0;" parent="Env5wDa3-ul8XCWj3TZE-1" source="Env5wDa3-ul8XCWj3TZE-8" target="msk4PVzX3fZnZM4PvKd4-1" edge="1">
          <mxGeometry relative="1" as="geometry">
            <mxPoint x="140" y="99.97" as="sourcePoint" />
            <mxPoint x="140" y="139.97" as="targetPoint" />
          </mxGeometry>
        </mxCell>
        <mxCell id="msk4PVzX3fZnZM4PvKd4-3" style="edgeStyle=orthogonalEdgeStyle;rounded=0;orthogonalLoop=1;jettySize=auto;html=1;exitX=0.5;exitY=1;exitDx=0;exitDy=0;entryX=0.5;entryY=0;entryDx=0;entryDy=0;fillColor=#d5e8d4;strokeColor=#82b366;" parent="Env5wDa3-ul8XCWj3TZE-1" source="msk4PVzX3fZnZM4PvKd4-1" target="Env5wDa3-ul8XCWj3TZE-10" edge="1">
          <mxGeometry relative="1" as="geometry" />
        </mxCell>
        <mxCell id="msk4PVzX3fZnZM4PvKd4-1" value="2" style="text;html=1;align=center;verticalAlign=middle;whiteSpace=wrap;rounded=0;fillColor=#d5e8d4;strokeColor=#82b366;fontSize=12;fontColor=#333333;" parent="Env5wDa3-ul8XCWj3TZE-1" vertex="1">
          <mxGeometry x="120" y="99.97" width="40" height="20" as="geometry" />
        </mxCell>
        <mxCell id="lBT97u84JXYTIlj_wOzR-0" value="1" style="text;html=1;align=center;verticalAlign=middle;whiteSpace=wrap;rounded=0;fillColor=#dae8fc;strokeColor=#6c8ebf;fontSize=12;fontColor=#333333;" parent="Env5wDa3-ul8XCWj3TZE-1" vertex="1">
          <mxGeometry x="120" y="260" width="40" height="20" as="geometry" />
        </mxCell>
        <mxCell id="lBT97u84JXYTIlj_wOzR-1" value="2" style="text;html=1;align=center;verticalAlign=middle;whiteSpace=wrap;rounded=0;fillColor=#d5e8d4;strokeColor=#82b366;fontSize=12;fontColor=#333333;" parent="Env5wDa3-ul8XCWj3TZE-1" vertex="1">
          <mxGeometry x="120" y="240.00000000000003" width="40" height="20" as="geometry" />
        </mxCell>
        <mxCell id="CubrjU6dIXOkjV_wu-Gp-0" value="nums" style="text;html=1;align=center;verticalAlign=middle;whiteSpace=wrap;rounded=0;fontSize=10;" parent="Env5wDa3-ul8XCWj3TZE-1" vertex="1">
          <mxGeometry x="40" y="120" width="120" height="20" as="geometry" />
        </mxCell>
        <mxCell id="A9JWBbgFt9czH1bm582D-0" value="return" style="text;html=1;align=center;verticalAlign=middle;whiteSpace=wrap;rounded=0;fontSize=10;" parent="Env5wDa3-ul8XCWj3TZE-1" vertex="1">
          <mxGeometry x="120" y="280" width="40" height="20" as="geometry" />
        </mxCell>
        <mxCell id="XzvhQpc05ySSJrV0-GmF-0" value="6" style="rounded=0;whiteSpace=wrap;html=1;fontSize=14;fillColor=#ffe6cc;strokeColor=#d79b00;fontColor=#333333;" parent="Env5wDa3-ul8XCWj3TZE-1" vertex="1">
          <mxGeometry x="200" y="59.97" width="40" height="40" as="geometry" />
        </mxCell>
        <mxCell id="XzvhQpc05ySSJrV0-GmF-1" value="target" style="text;html=1;align=center;verticalAlign=middle;whiteSpace=wrap;rounded=0;fontSize=10;" parent="Env5wDa3-ul8XCWj3TZE-1" vertex="1">
          <mxGeometry x="200" y="99.97" width="40" height="20" as="geometry" />
        </mxCell>
      </root>
    </mxGraphModel>
  </diagram>
  <diagram name="2_1" id="XxaEcn1D0qPyR1fZYPSp">
    <mxGraphModel dx="2074" dy="1231" grid="1" gridSize="10" guides="1" tooltips="1" connect="1" arrows="1" fold="1" page="1" pageScale="1" pageWidth="400" pageHeight="180" math="0" shadow="0">
      <root>
        <mxCell id="T0aFZszhNgqpVuCYx-Jp-0" />
        <mxCell id="T0aFZszhNgqpVuCYx-Jp-1" parent="T0aFZszhNgqpVuCYx-Jp-0" />
        <mxCell id="_S6RzJJ14RBt0gjqpuyq-35" value="6 - 3" style="edgeStyle=orthogonalEdgeStyle;rounded=0;orthogonalLoop=1;jettySize=auto;html=1;exitX=0.5;exitY=0;exitDx=0;exitDy=0;entryX=0;entryY=0;entryDx=0;entryDy=0;fillColor=#dae8fc;strokeColor=#6c8ebf;" parent="T0aFZszhNgqpVuCYx-Jp-1" source="_S6RzJJ14RBt0gjqpuyq-36" target="_S6RzJJ14RBt0gjqpuyq-40" edge="1">
          <mxGeometry relative="1" as="geometry" />
        </mxCell>
        <mxCell id="_S6RzJJ14RBt0gjqpuyq-36" value="3" style="rounded=0;whiteSpace=wrap;html=1;fontSize=14;fillColor=#dae8fc;strokeColor=#6c8ebf;fontColor=#333333;" parent="T0aFZszhNgqpVuCYx-Jp-1" vertex="1">
          <mxGeometry x="40" y="60" width="40" height="40" as="geometry" />
        </mxCell>
        <mxCell id="_S6RzJJ14RBt0gjqpuyq-37" value="2" style="rounded=0;whiteSpace=wrap;html=1;fontSize=14;fillColor=#f5f5f5;strokeColor=#666666;fontColor=#333333;" parent="T0aFZszhNgqpVuCYx-Jp-1" vertex="1">
          <mxGeometry x="80" y="60" width="40" height="40" as="geometry" />
        </mxCell>
        <mxCell id="_S6RzJJ14RBt0gjqpuyq-38" value="4" style="rounded=0;whiteSpace=wrap;html=1;fontSize=14;fillColor=#f5f5f5;strokeColor=#666666;fontColor=#333333;" parent="T0aFZszhNgqpVuCYx-Jp-1" vertex="1">
          <mxGeometry x="120" y="60" width="40" height="40" as="geometry" />
        </mxCell>
        <mxCell id="_S6RzJJ14RBt0gjqpuyq-39" value="3" style="rounded=0;whiteSpace=wrap;html=1;fillColor=#dae8fc;strokeColor=#6c8ebf;fontColor=#333333;" parent="T0aFZszhNgqpVuCYx-Jp-1" vertex="1">
          <mxGeometry x="200" y="60" width="40" height="20" as="geometry" />
        </mxCell>
        <mxCell id="_S6RzJJ14RBt0gjqpuyq-40" value="0" style="rounded=0;whiteSpace=wrap;html=1;fillColor=#d5e8d4;strokeColor=#82b366;fontColor=#333333;" parent="T0aFZszhNgqpVuCYx-Jp-1" vertex="1">
          <mxGeometry x="240" y="60" width="40" height="20" as="geometry" />
        </mxCell>
        <mxCell id="_S6RzJJ14RBt0gjqpuyq-41" value="0" style="text;html=1;align=center;verticalAlign=middle;whiteSpace=wrap;rounded=0;fillColor=#d5e8d4;strokeColor=#82b366;fontSize=12;fontColor=#333333;" parent="T0aFZszhNgqpVuCYx-Jp-1" vertex="1">
          <mxGeometry x="40" y="100" width="40" height="20" as="geometry" />
        </mxCell>
        <mxCell id="_S6RzJJ14RBt0gjqpuyq-42" value="6" style="rounded=0;whiteSpace=wrap;html=1;fontSize=14;fillColor=#f5f5f5;strokeColor=#666666;fontColor=#333333;" parent="T0aFZszhNgqpVuCYx-Jp-1" vertex="1">
          <mxGeometry x="320" y="60" width="40" height="40" as="geometry" />
        </mxCell>
        <mxCell id="_S6RzJJ14RBt0gjqpuyq-43" value="target" style="text;html=1;align=center;verticalAlign=middle;whiteSpace=wrap;rounded=0;fontSize=10;" parent="T0aFZszhNgqpVuCYx-Jp-1" vertex="1">
          <mxGeometry x="320" y="100" width="40" height="20" as="geometry" />
        </mxCell>
        <mxCell id="_S6RzJJ14RBt0gjqpuyq-44" value="indices" style="text;html=1;align=center;verticalAlign=middle;whiteSpace=wrap;rounded=0;fontSize=10;" parent="T0aFZszhNgqpVuCYx-Jp-1" vertex="1">
          <mxGeometry x="200" y="80" width="80" height="20" as="geometry" />
        </mxCell>
        <mxCell id="_S6RzJJ14RBt0gjqpuyq-45" value="nums" style="text;html=1;align=center;verticalAlign=middle;whiteSpace=wrap;rounded=0;fontSize=10;" parent="T0aFZszhNgqpVuCYx-Jp-1" vertex="1">
          <mxGeometry x="40" y="120" width="120" height="20" as="geometry" />
        </mxCell>
      </root>
    </mxGraphModel>
  </diagram>
  <diagram name="2_2" id="wzsuC_Gn7wTHb8iYxTYp">
    <mxGraphModel dx="2074" dy="1231" grid="1" gridSize="10" guides="1" tooltips="1" connect="1" arrows="1" fold="1" page="1" pageScale="1" pageWidth="320" pageHeight="180" math="0" shadow="0">
      <root>
        <mxCell id="uHoaGakTNyucxiGyGj9e-0" />
        <mxCell id="uHoaGakTNyucxiGyGj9e-1" parent="uHoaGakTNyucxiGyGj9e-0" />
        <mxCell id="On_LQSVzrLlXQCM5ADaU-11" value="3" style="rounded=0;whiteSpace=wrap;html=1;fontSize=14;fillColor=#f5f5f5;strokeColor=#666666;fontColor=#333333;" parent="uHoaGakTNyucxiGyGj9e-1" vertex="1">
          <mxGeometry x="40" y="60" width="40" height="40" as="geometry" />
        </mxCell>
        <mxCell id="On_LQSVzrLlXQCM5ADaU-12" value="6 - 2" style="edgeStyle=orthogonalEdgeStyle;rounded=0;orthogonalLoop=1;jettySize=auto;html=1;exitX=0.5;exitY=0;exitDx=0;exitDy=0;entryX=1;entryY=0;entryDx=0;entryDy=0;fillColor=#dae8fc;strokeColor=#6c8ebf;" parent="uHoaGakTNyucxiGyGj9e-1" source="On_LQSVzrLlXQCM5ADaU-13" target="On_LQSVzrLlXQCM5ADaU-15" edge="1">
          <mxGeometry relative="1" as="geometry">
            <mxPoint x="80" y="60" as="sourcePoint" />
            <Array as="points">
              <mxPoint x="100" y="40" />
              <mxPoint x="240" y="40" />
            </Array>
          </mxGeometry>
        </mxCell>
        <mxCell id="On_LQSVzrLlXQCM5ADaU-13" value="2" style="rounded=0;whiteSpace=wrap;html=1;fontSize=14;fillColor=#dae8fc;strokeColor=#6c8ebf;fontColor=#333333;" parent="uHoaGakTNyucxiGyGj9e-1" vertex="1">
          <mxGeometry x="80" y="60" width="40" height="40" as="geometry" />
        </mxCell>
        <mxCell id="On_LQSVzrLlXQCM5ADaU-14" value="4" style="rounded=0;whiteSpace=wrap;html=1;fontSize=14;fillColor=#f5f5f5;strokeColor=#666666;fontColor=#333333;" parent="uHoaGakTNyucxiGyGj9e-1" vertex="1">
          <mxGeometry x="120" y="60" width="40" height="40" as="geometry" />
        </mxCell>
        <mxCell id="On_LQSVzrLlXQCM5ADaU-15" value="3" style="rounded=0;whiteSpace=wrap;html=1;fillColor=#f5f5f5;strokeColor=#666666;fontColor=#333333;" parent="uHoaGakTNyucxiGyGj9e-1" vertex="1">
          <mxGeometry x="200" y="60" width="40" height="20" as="geometry" />
        </mxCell>
        <mxCell id="On_LQSVzrLlXQCM5ADaU-16" value="0" style="rounded=0;whiteSpace=wrap;html=1;fillColor=#f5f5f5;strokeColor=#666666;fontColor=#333333;" parent="uHoaGakTNyucxiGyGj9e-1" vertex="1">
          <mxGeometry x="240" y="60" width="40" height="20" as="geometry" />
        </mxCell>
        <mxCell id="On_LQSVzrLlXQCM5ADaU-17" value="1" style="text;html=1;align=center;verticalAlign=middle;whiteSpace=wrap;rounded=0;fillColor=#d5e8d4;strokeColor=#82b366;fontSize=12;fontColor=#333333;" parent="uHoaGakTNyucxiGyGj9e-1" vertex="1">
          <mxGeometry x="80" y="100" width="40" height="20" as="geometry" />
        </mxCell>
        <mxCell id="On_LQSVzrLlXQCM5ADaU-18" value="4" style="rounded=0;whiteSpace=wrap;html=1;fillColor=#dae8fc;strokeColor=#6c8ebf;fontColor=#333333;" parent="uHoaGakTNyucxiGyGj9e-1" vertex="1">
          <mxGeometry x="200" y="80" width="40" height="20" as="geometry" />
        </mxCell>
        <mxCell id="On_LQSVzrLlXQCM5ADaU-19" value="1" style="rounded=0;whiteSpace=wrap;html=1;fillColor=#d5e8d4;strokeColor=#82b366;fontColor=#333333;" parent="uHoaGakTNyucxiGyGj9e-1" vertex="1">
          <mxGeometry x="240" y="80" width="40" height="20" as="geometry" />
        </mxCell>
        <mxCell id="On_LQSVzrLlXQCM5ADaU-20" value="nums" style="text;html=1;align=center;verticalAlign=middle;whiteSpace=wrap;rounded=0;fontSize=10;" parent="uHoaGakTNyucxiGyGj9e-1" vertex="1">
          <mxGeometry x="40" y="120" width="120" height="20" as="geometry" />
        </mxCell>
        <mxCell id="On_LQSVzrLlXQCM5ADaU-21" value="indices" style="text;html=1;align=center;verticalAlign=middle;whiteSpace=wrap;rounded=0;fontSize=10;" parent="uHoaGakTNyucxiGyGj9e-1" vertex="1">
          <mxGeometry x="200" y="100" width="80" height="20" as="geometry" />
        </mxCell>
      </root>
    </mxGraphModel>
  </diagram>
  <diagram name="2_3" id="-r8IqurDU5i2XIWOiVry">
    <mxGraphModel dx="2074" dy="1231" grid="1" gridSize="10" guides="1" tooltips="1" connect="1" arrows="1" fold="1" page="1" pageScale="1" pageWidth="340" pageHeight="240" math="0" shadow="0">
      <root>
        <mxCell id="x3-lbS9V5egiwmVqFyMv-0" />
        <mxCell id="x3-lbS9V5egiwmVqFyMv-1" parent="x3-lbS9V5egiwmVqFyMv-0" />
        <mxCell id="sCyrDwwAJskQfi_5EHVv-16" value="3" style="rounded=0;whiteSpace=wrap;html=1;fontSize=14;fillColor=#f5f5f5;strokeColor=#666666;fontColor=#333333;" parent="x3-lbS9V5egiwmVqFyMv-1" vertex="1">
          <mxGeometry x="40" y="60" width="40" height="40" as="geometry" />
        </mxCell>
        <mxCell id="sCyrDwwAJskQfi_5EHVv-17" value="2" style="rounded=0;whiteSpace=wrap;html=1;fontSize=14;fillColor=#f5f5f5;strokeColor=#666666;fontColor=#333333;" parent="x3-lbS9V5egiwmVqFyMv-1" vertex="1">
          <mxGeometry x="80" y="60" width="40" height="40" as="geometry" />
        </mxCell>
        <mxCell id="sCyrDwwAJskQfi_5EHVv-18" value="4 = 4" style="edgeStyle=orthogonalEdgeStyle;rounded=0;orthogonalLoop=1;jettySize=auto;html=1;exitX=0.5;exitY=0;exitDx=0;exitDy=0;entryX=0;entryY=0;entryDx=0;entryDy=0;fillColor=#dae8fc;strokeColor=#6c8ebf;" parent="x3-lbS9V5egiwmVqFyMv-1" source="sCyrDwwAJskQfi_5EHVv-19" target="sCyrDwwAJskQfi_5EHVv-21" edge="1">
          <mxGeometry relative="1" as="geometry" />
        </mxCell>
        <mxCell id="sCyrDwwAJskQfi_5EHVv-19" value="4" style="rounded=0;whiteSpace=wrap;html=1;fontSize=14;fillColor=#dae8fc;strokeColor=#6c8ebf;fontColor=#333333;" parent="x3-lbS9V5egiwmVqFyMv-1" vertex="1">
          <mxGeometry x="120" y="60" width="40" height="40" as="geometry" />
        </mxCell>
        <mxCell id="sCyrDwwAJskQfi_5EHVv-20" value="3" style="rounded=0;whiteSpace=wrap;html=1;fillColor=#f5f5f5;strokeColor=#666666;fontColor=#333333;" parent="x3-lbS9V5egiwmVqFyMv-1" vertex="1">
          <mxGeometry x="200" y="60" width="40" height="20" as="geometry" />
        </mxCell>
        <mxCell id="sCyrDwwAJskQfi_5EHVv-21" value="0" style="rounded=0;whiteSpace=wrap;html=1;fillColor=#f5f5f5;strokeColor=#666666;fontColor=#333333;" parent="x3-lbS9V5egiwmVqFyMv-1" vertex="1">
          <mxGeometry x="240" y="60" width="40" height="20" as="geometry" />
        </mxCell>
        <mxCell id="sCyrDwwAJskQfi_5EHVv-22" value="4" style="rounded=0;whiteSpace=wrap;html=1;fillColor=#dae8fc;strokeColor=#6c8ebf;fontStyle=0;fontColor=#333333;" parent="x3-lbS9V5egiwmVqFyMv-1" vertex="1">
          <mxGeometry x="200" y="80" width="40" height="20" as="geometry" />
        </mxCell>
        <mxCell id="sCyrDwwAJskQfi_5EHVv-23" style="edgeStyle=orthogonalEdgeStyle;rounded=0;orthogonalLoop=1;jettySize=auto;html=1;exitX=1;exitY=0;exitDx=0;exitDy=0;entryX=1;entryY=0;entryDx=0;entryDy=0;fillColor=#ffe6cc;strokeColor=#d79b00;" parent="x3-lbS9V5egiwmVqFyMv-1" source="sCyrDwwAJskQfi_5EHVv-24" target="sCyrDwwAJskQfi_5EHVv-28" edge="1">
          <mxGeometry relative="1" as="geometry">
            <Array as="points">
              <mxPoint x="300" y="80" />
              <mxPoint x="300" y="160" />
            </Array>
          </mxGeometry>
        </mxCell>
        <mxCell id="sCyrDwwAJskQfi_5EHVv-24" value="1" style="rounded=0;whiteSpace=wrap;html=1;fillColor=#ffe6cc;strokeColor=#d79b00;fontStyle=0;fontColor=#333333;" parent="x3-lbS9V5egiwmVqFyMv-1" vertex="1">
          <mxGeometry x="240" y="80" width="40" height="20" as="geometry" />
        </mxCell>
        <mxCell id="sCyrDwwAJskQfi_5EHVv-25" value="nums" style="text;html=1;align=center;verticalAlign=middle;whiteSpace=wrap;rounded=0;fontSize=10;" parent="x3-lbS9V5egiwmVqFyMv-1" vertex="1">
          <mxGeometry x="40" y="120" width="120" height="20" as="geometry" />
        </mxCell>
        <mxCell id="sCyrDwwAJskQfi_5EHVv-26" value="indices" style="text;html=1;align=center;verticalAlign=middle;whiteSpace=wrap;rounded=0;fontSize=10;" parent="x3-lbS9V5egiwmVqFyMv-1" vertex="1">
          <mxGeometry x="200" y="100" width="80" height="20" as="geometry" />
        </mxCell>
        <mxCell id="sCyrDwwAJskQfi_5EHVv-27" value="2" style="rounded=0;whiteSpace=wrap;html=1;fillColor=#d5e8d4;strokeColor=#82b366;fontStyle=0;fontColor=#333333;" parent="x3-lbS9V5egiwmVqFyMv-1" vertex="1">
          <mxGeometry x="240" y="140" width="40" height="20" as="geometry" />
        </mxCell>
        <mxCell id="sCyrDwwAJskQfi_5EHVv-28" value="1" style="rounded=0;whiteSpace=wrap;html=1;fillColor=#ffe6cc;strokeColor=#d79b00;fontStyle=0;fontColor=#333333;" parent="x3-lbS9V5egiwmVqFyMv-1" vertex="1">
          <mxGeometry x="240" y="160" width="40" height="20" as="geometry" />
        </mxCell>
        <mxCell id="sCyrDwwAJskQfi_5EHVv-29" style="edgeStyle=orthogonalEdgeStyle;rounded=0;orthogonalLoop=1;jettySize=auto;html=1;exitX=0.5;exitY=1;exitDx=0;exitDy=0;entryX=0;entryY=0;entryDx=0;entryDy=0;fillColor=#d5e8d4;strokeColor=#82b366;" parent="x3-lbS9V5egiwmVqFyMv-1" source="sCyrDwwAJskQfi_5EHVv-30" target="sCyrDwwAJskQfi_5EHVv-28" edge="1">
          <mxGeometry relative="1" as="geometry">
            <Array as="points">
              <mxPoint x="140" y="160" />
            </Array>
          </mxGeometry>
        </mxCell>
        <mxCell id="sCyrDwwAJskQfi_5EHVv-30" value="2" style="text;html=1;align=center;verticalAlign=middle;whiteSpace=wrap;rounded=0;fillColor=#d5e8d4;strokeColor=#82b366;fontSize=12;fontColor=#333333;" parent="x3-lbS9V5egiwmVqFyMv-1" vertex="1">
          <mxGeometry x="120" y="100" width="40" height="20" as="geometry" />
        </mxCell>
        <mxCell id="sCyrDwwAJskQfi_5EHVv-31" value="return" style="text;html=1;align=center;verticalAlign=middle;whiteSpace=wrap;rounded=0;fontSize=10;" parent="x3-lbS9V5egiwmVqFyMv-1" vertex="1">
          <mxGeometry x="240" y="180" width="40" height="20" as="geometry" />
        </mxCell>
      </root>
    </mxGraphModel>
  </diagram>
</mxfile>
